<svg xmlns="http://www.w3.org/2000/svg" version="1.0" width="327.000000pt" height="103.000000pt" viewBox="0 0 327.000000 103.000000" preserveAspectRatio="xMidYMid meet">

<g transform="translate(0.000000,103.000000) scale(0.100000,-0.100000)" fill="#146f6c" stroke="none">
<path d="M300 755 l0 -55 49 0 c39 0 50 -4 54 -17 2 -10 1 -80 -1 -155 l-5 -138 87 0 86 0 0 155 0 155 50 0 50 0 0 55 0 55 -185 0 -185 0 0 -55z" fill="#146f6c"/>
<path d="M712 646 c3 -147 5 -168 24 -193 33 -46 98 -73 176 -73 83 0 141 22 171 64 20 29 22 44 25 199 l4 167 -86 0 -86 0 0 -144 c0 -158 -3 -176 -31 -176 -32 0 -39 34 -39 179 l0 141 -81 0 -80 0 3 -164z" fill="#146f6c"/>
<path d="M1150 600 l0 -210 80 0 80 0 0 39 c0 21 3 53 6 70 6 28 10 31 43 31 55 0 109 18 143 49 39 34 50 109 24 160 -32 61 -63 71 -228 71 l-148 0 0 -210z m232 113 c38 -34 7 -103 -47 -103 -24 0 -25 3 -25 60 0 58 1 60 27 60 14 0 35 -7 45 -17z" fill="#146f6c"/>
<path d="M1571 607 c-36 -111 -67 -208 -69 -214 -5 -14 92 -18 161 -7 35 6 37 9 37 44 0 34 -3 37 -37 46 -59 15 -63 34 -24 106 44 82 63 101 101 101 38 0 66 -26 104 -96 34 -65 30 -82 -24 -105 -25 -11 -38 -22 -35 -30 3 -8 5 -25 5 -38 0 -24 1 -24 96 -24 80 0 95 2 91 14 -3 8 -34 103 -68 210 l-63 196 -105 0 -106 0 -64 -203z" fill="#146f6c"/>
<path d="M2020 600 l0 -210 80 0 79 0 3 88 3 87 45 -87 44 -88 88 0 c49 0 88 2 88 4 0 3 -29 53 -64 113 -57 95 -63 110 -52 128 7 11 32 55 55 98 l43 77 -84 0 -83 0 -39 -85 c-21 -47 -43 -82 -48 -79 -7 4 -8 36 -3 85 l6 79 -80 0 -81 0 0 -210z" fill="#146f6c"/>
<path d="M2480 662 c0 -133 2 -152 23 -192 31 -63 87 -90 182 -90 53 0 82 5 115 23 71 35 80 63 80 250 l0 157 -82 0 -83 0 3 -132 c4 -145 -5 -188 -38 -188 -30 0 -40 39 -33 128 3 43 3 104 -1 135 l-7 57 -80 0 -79 0 0 -148z" fill="#146f6c"/>
<path d="M1755 538 c-11 -7 -45 -17 -75 -24 -54 -11 -55 -12 -27 -23 38 -15 57 -14 57 2 0 13 48 42 56 35 2 -2 7 -13 11 -25 7 -20 10 -20 41 -8 39 17 41 32 6 45 -32 13 -44 12 -69 -2z" fill="#146f6c"/>
</g>
</svg>